<?xml version="1.0" standalone="no"?>
<!DOCTYPE svg PUBLIC "-//W3C//DTD SVG 20010904//EN"
 "http://www.w3.org/TR/2001/REC-SVG-20010904/DTD/svg10.dtd">
<svg version="1.0" xmlns="http://www.w3.org/2000/svg"
 width="400.000000pt" height="400.000000pt" viewBox="0 0 400.000000 400.000000"
 preserveAspectRatio="xMidYMid meet">
<metadata>
Created by potrace 1.14, written by Peter Selinger 2001-2017
</metadata>
<g transform="translate(0.000000,400.000000) scale(0.100000,-0.100000)"
fill="#000000" stroke="none">
<path d="M0 2000 l0 -2000 2000 0 2000 0 0 2000 0 2000 -2000 0 -2000 0 0
-2000z m2365 1019 c34 -16 92 -71 148 -141 38 -47 46 -65 25 -52 -7 4 -8 3 -4
-5 4 -6 11 -9 16 -6 4 3 21 -11 36 -30 31 -38 52 -62 99 -116 17 -19 64 -74
105 -124 41 -49 77 -92 80 -95 9 -7 107 -124 147 -175 17 -23 44 -68 60 -100
26 -56 28 -68 28 -190 0 -128 -1 -131 -34 -198 -36 -72 -131 -191 -406 -511
-93 -109 -174 -205 -179 -215 -5 -9 -26 -34 -47 -55 l-37 -39 -31 33 c-32 36
-34 55 -3 27 18 -16 19 -15 20 28 2 31 11 58 32 89 17 24 30 49 30 56 0 7 6
26 14 43 33 73 45 108 40 122 -3 8 3 26 14 40 12 15 23 49 27 88 4 34 11 65
16 68 5 3 12 43 15 90 3 46 17 122 31 169 14 47 26 99 28 115 1 17 8 65 14
109 10 60 10 85 1 107 -7 16 -10 44 -8 63 2 19 1 33 -3 30 -7 -4 -15 45 -25
161 -4 39 -10 72 -14 75 -5 3 -11 23 -13 45 -11 83 -20 124 -27 120 -4 -2 -3
15 3 39 8 35 14 44 29 41 10 -2 16 0 13 5 -9 14 -38 4 -47 -16 -5 -12 -7 -3
-4 26 4 34 3 39 -4 23 -10 -25 -23 -32 -14 -9 3 8 2 22 -4 31 -7 13 -14 4 -32
-44 -12 -34 -41 -87 -63 -119 -47 -65 -155 -202 -172 -217 -6 -5 -31 -35 -56
-66 -95 -120 -345 -426 -374 -458 -53 -59 -139 -90 -191 -71 -16 6 -41 23 -56
37 l-26 25 2 -219 c1 -120 -2 -224 -7 -230 -7 -9 -4 -13 7 -13 9 0 16 -4 16
-10 0 -5 -5 -10 -11 -10 -6 0 -9 -9 -6 -20 3 -10 1 -21 -4 -24 -5 -2 -4 -3 3
-2 7 2 13 9 13 16 0 7 7 16 16 19 15 6 67 65 189 216 36 44 69 85 75 91 5 6
46 55 90 109 276 338 293 356 344 373 92 32 159 2 206 -93 58 -117 44 -283
-33 -400 -25 -38 -101 -135 -126 -161 -6 -6 -25 -29 -42 -50 -17 -22 -60 -74
-95 -116 -299 -359 -303 -363 -400 -380 -52 -9 -71 -8 -115 6 -55 17 -102 62
-195 186 -37 49 -120 149 -314 380 -165 195 -205 249 -233 308 -24 52 -27 68
-27 172 0 111 2 118 36 190 49 103 64 124 184 260 22 25 63 72 90 105 27 33
56 67 64 76 9 10 32 36 51 60 19 23 53 64 75 90 22 25 56 67 75 92 19 26 39
46 44 47 11 0 74 -71 145 -164 30 -39 69 -86 85 -104 l31 -32 65 77 c36 43 71
84 78 93 7 8 42 51 77 95 93 117 130 137 245 131 41 -2 89 -10 105 -17z"/>
<path d="M2406 1032 c-3 -5 1 -9 9 -9 8 0 12 4 9 9 -3 4 -7 8 -9 8 -2 0 -6 -4
-9 -8z"/>
</g>
</svg>
