<?xml version="1.0" standalone="no"?>
<!DOCTYPE svg PUBLIC "-//W3C//DTD SVG 20010904//EN"
 "http://www.w3.org/TR/2001/REC-SVG-20010904/DTD/svg10.dtd">
<svg version="1.0" xmlns="http://www.w3.org/2000/svg"
 width="500.000000pt" height="500.000000pt" viewBox="0 0 500.000000 500.000000"
 preserveAspectRatio="xMidYMid meet">
<metadata>
Created by potrace 1.14, written by Peter Selinger 2001-2017
</metadata>
<g transform="translate(0.000000,500.000000) scale(0.100000,-0.100000)"
fill="#000000" stroke="none">
<path d="M2419 4306 c-2 -2 -32 -7 -67 -10 -203 -21 -426 -88 -615 -185 -386
-197 -641 -515 -732 -913 -13 -56 -23 -75 -58 -110 -48 -49 -70 -89 -92 -174
-17 -64 -22 -194 -10 -264 17 -100 75 -186 153 -224 40 -19 47 -28 72 -92 35
-92 92 -194 147 -265 83 -107 236 -224 356 -273 29 -11 54 -23 55 -26 2 -3 0
-18 -4 -34 -5 -20 -2 -39 10 -61 14 -26 15 -37 7 -53 -14 -26 -14 -84 0 -114
9 -21 0 -46 -65 -178 -43 -88 -78 -174 -82 -200 -8 -58 10 -123 44 -161 l27
-31 55 20 c30 10 62 22 71 26 12 5 23 -8 48 -59 35 -71 95 -139 151 -172 33
-20 109 -45 173 -58 23 -5 26 -9 21 -30 -3 -13 -1 -39 5 -58 18 -53 50 -62
221 -61 153 1 220 16 220 49 0 9 19 24 46 35 49 21 68 25 60 12 -3 -5 1 -18 9
-29 16 -22 83 -44 155 -49 25 -2 60 -5 78 -7 18 -3 30 -2 27 2 -4 3 -15 6 -26
6 -10 0 -19 3 -19 8 0 4 0 14 0 22 0 17 74 62 116 71 21 4 42 -1 67 -15 41
-23 47 -21 17 7 -19 18 -19 18 13 18 58 -1 101 -74 63 -105 -11 -9 -20 -9 -35
-2 -23 13 -51 5 -51 -15 0 -9 8 -12 23 -10 12 3 35 5 50 5 36 1 79 43 70 68
-11 33 -38 56 -92 80 l-55 24 40 18 c63 29 121 92 164 183 22 45 40 88 40 95
0 16 16 17 25 2 4 -6 25 -24 47 -40 49 -35 106 -39 132 -10 26 29 35 115 19
185 -14 62 -76 195 -106 227 -15 16 -17 29 -11 77 7 65 -10 113 -46 132 -11 6
-23 23 -26 38 -4 15 -16 44 -27 64 -11 21 -19 39 -16 41 2 1 40 13 84 26 148
41 322 143 441 256 89 85 143 197 175 365 10 50 19 70 40 87 38 32 81 109 96
173 14 62 11 216 -6 298 -6 29 -24 83 -41 119 -17 37 -28 73 -26 80 11 28 7
239 -5 288 -29 122 -129 283 -249 405 -80 81 -244 205 -331 251 -14 8 -44 26
-65 40 -81 53 -227 107 -342 125 -20 3 -40 8 -44 10 -29 18 -266 46 -414 50
-94 2 -173 2 -175 0z m1450 -1804 c30 -27 33 -33 27 -72 -6 -46 -38 -82 -88
-99 -36 -13 -43 -1 -28 45 7 21 10 69 8 114 l-4 79 25 -19 c14 -10 41 -32 60
-48z"/>
</g>
</svg>
